<svg xmlns="http://www.w3.org/2000/svg" viewBox="0 0 1200 260" width="100%">
<rect width="1200" height="260" fill="#1B1814" rx="14"/>
<path d="M 30.0 130.0 L 42.8 150.6 L 55.6 168.7 L 68.4 182.0 L 81.2 189.1 L 94.0 189.0 L 106.9 181.8 L 119.7 168.3 L 132.5 150.1 L 145.3 129.5 L 158.1 109.0 L 170.9 91.0 L 183.7 77.7 L 196.5 70.8 L 209.3 71.1 L 222.1 78.5 L 234.9 92.1 L 247.8 110.4 L 260.6 131.0 L 273.4 151.5 L 286.2 169.4 L 299.0 182.5 L 311.8 189.3 L 324.6 188.9 L 337.4 181.3 L 350.2 167.5 L 363.0 149.1 L 375.8 128.5 L 388.7 108.0 L 401.5 90.2 L 414.3 77.2 L 427.1 70.6 L 439.9 71.2 L 452.7 79.0 L 465.5 92.9 L 478.3 111.3 L 491.1 132.0 L 503.9 152.5 L 516.7 170.2 L 529.6 183.0 L 542.4 189.4 L 555.2 188.6 L 568.0 180.7 L 580.8 166.7 L 593.6 148.2 L 606.4 127.5 L 619.2 107.1 L 632.0 89.5 L 644.8 76.7 L 657.6 70.5 L 670.4 71.5 L 683.3 79.5 L 696.1 93.7 L 708.9 112.3 L 721.7 133.0 L 734.5 153.4 L 747.3 170.9 L 760.1 183.5 L 772.9 189.6 L 785.7 188.4 L 798.5 180.2 L 811.3 165.9 L 824.2 147.2 L 837.0 126.5 L 849.8 106.1 L 862.6 88.7 L 875.4 76.3 L 888.2 70.4 L 901.0 71.7 L 913.8 80.1 L 926.6 94.5 L 939.4 113.3 L 952.2 134.0 L 965.1 154.3 L 977.9 171.6 L 990.7 183.9 L 1003.5 189.7 L 1016.3 188.2 L 1029.1 179.6 L 1041.9 165.1 L 1054.7 146.3 L 1067.5 125.5 L 1080.3 105.2 L 1093.1 88.0 L 1106.0 75.8 L 1118.8 70.3 L 1131.6 71.9 L 1144.4 80.6 L 1157.2 95.3 L 1170.0 114.2 " stroke="#3C3327" stroke-width="2" fill="none" opacity="0.6"/>
<text x="30" y="30" fill="#A89C84" font-family="Fira Code, monospace" font-size="14">THE PIVOT PATH — DAY 1 / 90</text>
<circle cx="30.0" cy="130.0" r="12" fill="none" stroke="#E9E0CD" stroke-width="2"><animate attributeName="r" values="10;15;10" dur="2s" repeatCount="indefinite"/><animate attributeName="opacity" values="1;0.3;1" dur="2s" repeatCount="indefinite"/></circle>
<circle cx="30.0" cy="130.0" r="8" fill="#C1813F" opacity="1.0"/>
<circle cx="42.8" cy="150.6" r="4" fill="#241F19" opacity="0.25"/>
<circle cx="55.6" cy="168.7" r="4" fill="#241F19" opacity="0.25"/>
<circle cx="68.4" cy="182.0" r="4" fill="#241F19" opacity="0.25"/>
<circle cx="81.2" cy="189.1" r="4" fill="#241F19" opacity="0.25"/>
<circle cx="94.0" cy="189.0" r="4" fill="#241F19" opacity="0.25"/>
<circle cx="106.9" cy="181.8" r="4" fill="#241F19" opacity="0.25"/>
<circle cx="119.7" cy="168.3" r="4" fill="#241F19" opacity="0.25"/>
<circle cx="132.5" cy="150.1" r="4" fill="#241F19" opacity="0.25"/>
<circle cx="145.3" cy="129.5" r="4" fill="#241F19" opacity="0.25"/>
<circle cx="158.1" cy="109.0" r="4" fill="#241F19" opacity="0.25"/>
<circle cx="170.9" cy="91.0" r="4" fill="#241F19" opacity="0.25"/>
<circle cx="183.7" cy="77.7" r="4" fill="#241F19" opacity="0.25"/>
<circle cx="196.5" cy="70.8" r="4" fill="#241F19" opacity="0.25"/>
<circle cx="209.3" cy="71.1" r="4" fill="#241F19" opacity="0.25"/>
<circle cx="222.1" cy="78.5" r="4" fill="#241F19" opacity="0.25"/>
<circle cx="234.9" cy="92.1" r="4" fill="#241F19" opacity="0.25"/>
<circle cx="247.8" cy="110.4" r="4" fill="#241F19" opacity="0.25"/>
<circle cx="260.6" cy="131.0" r="4" fill="#241F19" opacity="0.25"/>
<circle cx="273.4" cy="151.5" r="4" fill="#241F19" opacity="0.25"/>
<circle cx="286.2" cy="169.4" r="4" fill="#241F19" opacity="0.25"/>
<circle cx="299.0" cy="182.5" r="4" fill="#241F19" opacity="0.25"/>
<circle cx="311.8" cy="189.3" r="4" fill="#241F19" opacity="0.25"/>
<circle cx="324.6" cy="188.9" r="4" fill="#241F19" opacity="0.25"/>
<circle cx="337.4" cy="181.3" r="4" fill="#241F19" opacity="0.25"/>
<circle cx="350.2" cy="167.5" r="4" fill="#241F19" opacity="0.25"/>
<circle cx="363.0" cy="149.1" r="4" fill="#241F19" opacity="0.25"/>
<circle cx="375.8" cy="128.5" r="4" fill="#241F19" opacity="0.25"/>
<circle cx="388.7" cy="108.0" r="4" fill="#241F19" opacity="0.25"/>
<circle cx="401.5" cy="90.2" r="4" fill="#241F19" opacity="0.25"/>
<circle cx="414.3" cy="77.2" r="4" fill="#241F19" opacity="0.25"/>
<circle cx="427.1" cy="70.6" r="4" fill="#241F19" opacity="0.25"/>
<circle cx="439.9" cy="71.2" r="4" fill="#241F19" opacity="0.25"/>
<circle cx="452.7" cy="79.0" r="4" fill="#241F19" opacity="0.25"/>
<circle cx="465.5" cy="92.9" r="4" fill="#241F19" opacity="0.25"/>
<circle cx="478.3" cy="111.3" r="4" fill="#241F19" opacity="0.25"/>
<circle cx="491.1" cy="132.0" r="4" fill="#241F19" opacity="0.25"/>
<circle cx="503.9" cy="152.5" r="4" fill="#241F19" opacity="0.25"/>
<circle cx="516.7" cy="170.2" r="4" fill="#241F19" opacity="0.25"/>
<circle cx="529.6" cy="183.0" r="4" fill="#241F19" opacity="0.25"/>
<circle cx="542.4" cy="189.4" r="4" fill="#241F19" opacity="0.25"/>
<circle cx="555.2" cy="188.6" r="4" fill="#241F19" opacity="0.25"/>
<circle cx="568.0" cy="180.7" r="4" fill="#241F19" opacity="0.25"/>
<circle cx="580.8" cy="166.7" r="4" fill="#241F19" opacity="0.25"/>
<circle cx="593.6" cy="148.2" r="4" fill="#241F19" opacity="0.25"/>
<circle cx="606.4" cy="127.5" r="4" fill="#241F19" opacity="0.25"/>
<circle cx="619.2" cy="107.1" r="4" fill="#241F19" opacity="0.25"/>
<circle cx="632.0" cy="89.5" r="4" fill="#241F19" opacity="0.25"/>
<circle cx="644.8" cy="76.7" r="4" fill="#241F19" opacity="0.25"/>
<circle cx="657.6" cy="70.5" r="4" fill="#241F19" opacity="0.25"/>
<circle cx="670.4" cy="71.5" r="4" fill="#241F19" opacity="0.25"/>
<circle cx="683.3" cy="79.5" r="4" fill="#241F19" opacity="0.25"/>
<circle cx="696.1" cy="93.7" r="4" fill="#241F19" opacity="0.25"/>
<circle cx="708.9" cy="112.3" r="4" fill="#241F19" opacity="0.25"/>
<circle cx="721.7" cy="133.0" r="4" fill="#241F19" opacity="0.25"/>
<circle cx="734.5" cy="153.4" r="4" fill="#241F19" opacity="0.25"/>
<circle cx="747.3" cy="170.9" r="4" fill="#241F19" opacity="0.25"/>
<circle cx="760.1" cy="183.5" r="4" fill="#241F19" opacity="0.25"/>
<circle cx="772.9" cy="189.6" r="4" fill="#241F19" opacity="0.25"/>
<circle cx="785.7" cy="188.4" r="4" fill="#241F19" opacity="0.25"/>
<circle cx="798.5" cy="180.2" r="4" fill="#241F19" opacity="0.25"/>
<circle cx="811.3" cy="165.9" r="4" fill="#241F19" opacity="0.25"/>
<circle cx="824.2" cy="147.2" r="4" fill="#241F19" opacity="0.25"/>
<circle cx="837.0" cy="126.5" r="4" fill="#241F19" opacity="0.25"/>
<circle cx="849.8" cy="106.1" r="4" fill="#241F19" opacity="0.25"/>
<circle cx="862.6" cy="88.7" r="4" fill="#241F19" opacity="0.25"/>
<circle cx="875.4" cy="76.3" r="4" fill="#241F19" opacity="0.25"/>
<circle cx="888.2" cy="70.4" r="4" fill="#241F19" opacity="0.25"/>
<circle cx="901.0" cy="71.7" r="4" fill="#241F19" opacity="0.25"/>
<circle cx="913.8" cy="80.1" r="4" fill="#241F19" opacity="0.25"/>
<circle cx="926.6" cy="94.5" r="4" fill="#241F19" opacity="0.25"/>
<circle cx="939.4" cy="113.3" r="4" fill="#241F19" opacity="0.25"/>
<circle cx="952.2" cy="134.0" r="4" fill="#241F19" opacity="0.25"/>
<circle cx="965.1" cy="154.3" r="4" fill="#241F19" opacity="0.25"/>
<circle cx="977.9" cy="171.6" r="4" fill="#241F19" opacity="0.25"/>
<circle cx="990.7" cy="183.9" r="4" fill="#241F19" opacity="0.25"/>
<circle cx="1003.5" cy="189.7" r="4" fill="#241F19" opacity="0.25"/>
<circle cx="1016.3" cy="188.2" r="4" fill="#241F19" opacity="0.25"/>
<circle cx="1029.1" cy="179.6" r="4" fill="#241F19" opacity="0.25"/>
<circle cx="1041.9" cy="165.1" r="4" fill="#241F19" opacity="0.25"/>
<circle cx="1054.7" cy="146.3" r="4" fill="#241F19" opacity="0.25"/>
<circle cx="1067.5" cy="125.5" r="4" fill="#241F19" opacity="0.25"/>
<circle cx="1080.3" cy="105.2" r="4" fill="#241F19" opacity="0.25"/>
<circle cx="1093.1" cy="88.0" r="4" fill="#241F19" opacity="0.25"/>
<circle cx="1106.0" cy="75.8" r="4" fill="#241F19" opacity="0.25"/>
<circle cx="1118.8" cy="70.3" r="4" fill="#241F19" opacity="0.25"/>
<circle cx="1131.6" cy="71.9" r="4" fill="#241F19" opacity="0.25"/>
<circle cx="1144.4" cy="80.6" r="4" fill="#241F19" opacity="0.25"/>
<circle cx="1157.2" cy="95.3" r="4" fill="#241F19" opacity="0.25"/>
<circle cx="1170.0" cy="114.2" r="4" fill="#241F19" opacity="0.25"/>
<text x="1170" y="244" fill="#A89C84" font-family="Fira Code, monospace" font-size="12" text-anchor="end">7 pillars/day · 1 strong days so far</text>
</svg>