<svg xmlns="http://www.w3.org/2000/svg" viewBox="0 0 1200 380" width="1200" height="380">
  <rect width="1200" height="380" fill="#171717" rx="16"/>
  <line x1="24" y1="24" x2="1176" y2="24" stroke="#232323" stroke-width="1"/>

  <text x="24" y="52" font-family="IBM Plex Mono, monospace" font-size="24" font-weight="600" fill="#F5F0E6">CAREER DASHBOARD</text>
  <text x="24" y="78" font-family="IBM Plex Mono, monospace" font-size="14" fill="#9A8C7C">Business impact before product — Dhobi G, Growth &amp; Partnerships</text>
  <line x1="24" y1="96" x2="1176" y2="96" stroke="#232323" stroke-width="1"/>

  <text x="24" y="132" font-family="IBM Plex Mono, monospace" font-size="11" fill="#9A8C7C" letter-spacing="0.5">COLLEGES CONTACTED</text>
  <text x="24" y="160" font-family="IBM Plex Mono, monospace" font-size="28" font-weight="600" fill="#F5F0E6">100+</text>

  <text x="220" y="132" font-family="IBM Plex Mono, monospace" font-size="11" fill="#9A8C7C" letter-spacing="0.5">QUALIFIED LEADS</text>
  <text x="220" y="160" font-family="IBM Plex Mono, monospace" font-size="28" font-weight="600" fill="#F5F0E6">30+</text>

  <text x="416" y="132" font-family="IBM Plex Mono, monospace" font-size="11" fill="#9A8C7C" letter-spacing="0.5">LOIS SIGNED</text>
  <text x="416" y="160" font-family="IBM Plex Mono, monospace" font-size="28" font-weight="600" fill="#F5F0E6">2</text>

  <text x="612" y="132" font-family="IBM Plex Mono, monospace" font-size="11" fill="#9A8C7C" letter-spacing="0.5">PARTNERSHIPS CLOSED</text>
  <text x="612" y="160" font-family="IBM Plex Mono, monospace" font-size="28" font-weight="600" fill="#C1813F">1</text>

  <rect x="24" y="180" width="1152" height="10" rx="5" fill="#232323"/>
  <rect x="24" y="180" width="346" height="10" rx="5" fill="#8A5B2C"/>
  <rect x="24" y="180" width="23" height="10" rx="5" fill="#C1813F"/>

  <line x1="24" y1="210" x2="1176" y2="210" stroke="#232323" stroke-width="1"/>
  <text x="24" y="238" font-family="IBM Plex Mono, monospace" font-size="13" font-weight="600" fill="#F5F0E6">WHAT THIS TAUGHT ME</text>

  <g font-family="IBM Plex Mono, monospace" font-size="13" fill="#E8E4D8">
    <circle cx="30" cy="262" r="2.5" fill="#C1813F"/><text x="42" y="266">User problems before features</text>
    <circle cx="30" cy="286" r="2.5" fill="#C1813F"/><text x="42" y="290">Sales psychology &amp; objection handling</text>
    <circle cx="30" cy="310" r="2.5" fill="#C1813F"/><text x="42" y="314">Stakeholder management under pressure</text>
    <circle cx="400" cy="262" r="2.5" fill="#C1813F"/><text x="412" y="266">Negotiation with real constraints</text>
    <circle cx="400" cy="286" r="2.5" fill="#C1813F"/><text x="412" y="290">Customer discovery, not assumption</text>
    <circle cx="400" cy="310" r="2.5" fill="#C1813F"/><text x="412" y="314">Execution under constraints, daily</text>
  </g>

  <line x1="24" y1="334" x2="1176" y2="334" stroke="#232323" stroke-width="1"/>
  <text x="24" y="358" font-family="IBM Plex Mono, monospace" font-size="13" fill="#9A8C7C" font-style="italic">A product only succeeds when it solves a real business problem.</text>
</svg>
